<svg xmlns="http://www.w3.org/2000/svg" fill="none" viewBox="0 0 120 37"><g clip-path="url(#a)"><path d="M51.946 21.663a8.2 8.2 0 0 1-3.278-.638 7.268 7.268 0 0 1-2.573-1.85 8.305 8.305 0 0 1-1.67-2.975 12.424 12.424 0 0 1-.607-3.987 11.502 11.502 0 0 1 .619-3.938 8.73 8.73 0 0 1 1.707-2.962 7.406 7.406 0 0 1 2.623-1.875 8.39 8.39 0 0 1 3.315-.65c.582 0 1.15.062 1.72.2a6.41 6.41 0 0 1 1.422.512c.409.2.792.438 1.151.725.322.25.619.525.903.825l-1.262 1.5a6.645 6.645 0 0 0-1.596-1.225c-.606-.337-1.36-.5-2.276-.5a5.82 5.82 0 0 0-2.474.513c-.73.337-1.36.837-1.868 1.475a6.863 6.863 0 0 0-1.2 2.312 10.205 10.205 0 0 0-.42 3.05c-.013 1.05.123 2.088.395 3.1.235.85.619 1.65 1.15 2.35a5.092 5.092 0 0 0 1.869 1.5c.804.363 1.682.55 2.573.525a6.1 6.1 0 0 0 1.83-.287 4.03 4.03 0 0 0 1.411-.788v-4.75h-3.823V11.9h5.901v7.663a6.718 6.718 0 0 1-2.3 1.512 8.234 8.234 0 0 1-3.242.588ZM63.18 5.075a1.603 1.603 0 0 1-1.113-.413 1.356 1.356 0 0 1-.458-1.05c-.012-.412.149-.8.458-1.062a1.74 1.74 0 0 1 2.227 0 1.4 1.4 0 0 1 .457 1.062c.013.4-.16.788-.457 1.05-.31.275-.706.425-1.114.413Zm-1.15 16.262V7.85h2.251v13.487H62.03Zm7.188 0V7.85h1.868l.185 2.438h.087a6.39 6.39 0 0 1 1.658-2.025 3.402 3.402 0 0 1 2.128-.75 3.44 3.44 0 0 1 1.422.275l-.433 2a4.82 4.82 0 0 0-.606-.163 3.121 3.121 0 0 0-.68-.05c-.57 0-1.163.225-1.77.7-.618.463-1.15 1.263-1.608 2.413v8.662l-2.251-.012Zm12.383.325c-1.113 0-2.041-.337-2.783-1-.743-.662-1.114-1.612-1.114-2.825 0-1.475.656-2.612 1.955-3.4 1.299-.787 3.377-1.337 6.235-1.65a6.01 6.01 0 0 0-.124-1.25 3.422 3.422 0 0 0-.42-1.087 2.16 2.16 0 0 0-.842-.763 2.703 2.703 0 0 0-1.36-.287c-.743 0-1.485.15-2.166.45-.63.275-1.237.612-1.818 1l-.878-1.588a14.59 14.59 0 0 1 2.276-1.175 7.341 7.341 0 0 1 2.969-.562c1.633 0 2.808.5 3.538 1.512.73 1.013 1.101 2.35 1.101 4.038v8.275h-1.868l-.198-1.613h-.087c-.63.538-1.323 1-2.066 1.375a5.047 5.047 0 0 1-2.35.55Zm.668-1.825c.631 0 1.25-.162 1.806-.462a9.565 9.565 0 0 0 1.819-1.35v-3.75c-.953.112-1.893.287-2.82.525-.644.162-1.263.4-1.844.725-.408.225-.767.55-1.014.962a2.2 2.2 0 0 0-.31 1.175c0 .775.223 1.325.68 1.663.495.35 1.09.525 1.683.512Zm10.924 1.5V9.713h-1.819V7.988l1.819-.138V5.713c0-1.388.321-2.488.952-3.276.631-.787 1.62-1.187 2.944-1.187a5.591 5.591 0 0 1 2.227.45l-.495 1.75a3.91 3.91 0 0 0-1.509-.338c-1.25 0-1.868.875-1.868 2.613v2.138h2.833v1.85h-2.833v11.624h-2.251Zm8.969 0V9.713h-1.818V7.988l1.818-.138V5.713c0-1.388.322-2.476.953-3.276.631-.8 1.621-1.187 2.957-1.187.395 0 .804.038 1.187.125.347.075.693.188 1.027.325l-.495 1.75a3.906 3.906 0 0 0-1.509-.338c-1.25 0-1.868.875-1.868 2.613v2.138h2.833v1.85h-2.833v11.624h-2.252Zm12.965.325a6.375 6.375 0 0 1-2.511-.487 5.835 5.835 0 0 1-2.029-1.388 6.537 6.537 0 0 1-1.361-2.2 8.411 8.411 0 0 1-.495-2.975 8.539 8.539 0 0 1 .507-2.987 7.098 7.098 0 0 1 1.349-2.238 5.678 5.678 0 0 1 1.905-1.4 5.3 5.3 0 0 1 2.227-.487 5.433 5.433 0 0 1 2.264.45 4.45 4.45 0 0 1 1.67 1.275c.47.587.816 1.275 1.027 2 .247.85.371 1.725.358 2.612 0 .238 0 .475-.012.713 0 .2-.025.4-.062.6h-9.006c.087 1.45.532 2.587 1.336 3.425.792.837 1.831 1.262 3.118 1.262.606 0 1.2-.087 1.769-.287.544-.2 1.064-.45 1.546-.763l.792 1.5a10.5 10.5 0 0 1-1.955.963 6.494 6.494 0 0 1-2.437.412Zm-4.206-8.15h7.138c0-1.375-.285-2.412-.866-3.125-.581-.712-1.386-1.075-2.437-1.075a3.398 3.398 0 0 0-2.524 1.1 4.539 4.539 0 0 0-.866 1.325 5.832 5.832 0 0 0-.445 1.775Zm-44.115 20c-.31 0-.619-.062-.916-.174a2.882 2.882 0 0 1-.754-.45l.383-.513c.186.15.384.288.606.388.223.1.47.15.718.15a.986.986 0 0 0 .668-.2.65.65 0 0 0 .223-.5.494.494 0 0 0-.1-.313 1.009 1.009 0 0 0-.234-.225 2.105 2.105 0 0 0-.334-.175l-.371-.15c-.161-.05-.322-.125-.483-.187a1.745 1.745 0 0 1-.433-.263 1.448 1.448 0 0 1-.31-.362.999.999 0 0 1-.123-.5 1.234 1.234 0 0 1 .42-.925c.15-.125.31-.213.483-.275.47-.15.965-.125 1.423.05.222.087.433.212.618.362l-.358.488a2.349 2.349 0 0 0-.483-.288 1.37 1.37 0 0 0-.544-.112c-.285 0-.495.062-.619.2a.636.636 0 0 0-.198.462c0 .1.025.2.087.275a.68.68 0 0 0 .223.2c.099.063.21.113.321.163l.371.15c.161.062.322.125.483.2.16.062.31.15.433.262.124.1.235.225.322.375.086.163.123.35.123.538 0 .175-.037.362-.111.525a1.354 1.354 0 0 1-.829.725c-.223.062-.458.1-.705.1Zm5.369 0a1.92 1.92 0 0 1-.792-.162 1.86 1.86 0 0 1-.656-.463 2.22 2.22 0 0 1-.457-.75 3.115 3.115 0 0 1 0-2.012 2.22 2.22 0 0 1 .457-.75c.186-.2.409-.363.656-.463a2.046 2.046 0 0 1 1.584 0c.247.1.482.263.655.463.198.212.359.475.458.75a2.96 2.96 0 0 1 0 2.012c-.1.275-.26.538-.458.75-.185.2-.408.363-.655.463-.248.112-.52.162-.792.162Zm0-.637c.185 0 .358-.038.52-.125.16-.088.309-.213.408-.35a1.5 1.5 0 0 0 .26-.55c.061-.225.098-.475.086-.713 0-.237-.025-.487-.087-.712a1.756 1.756 0 0 0-.272-.55 1.262 1.262 0 0 0-.408-.363 1.195 1.195 0 0 0-1.052 0 1.16 1.16 0 0 0-.408.363c-.124.162-.21.362-.26.55a2.342 2.342 0 0 0-.086.712c0 .238.025.475.086.713.05.2.149.387.26.55a1.1 1.1 0 0 0 .408.35c.186.087.371.125.545.125Zm3.946.525v-3.912h-.606v-.575l.606-.05v-.725c0-.463.111-.838.322-1.1.21-.263.544-.4.99-.4.135 0 .271.012.395.037.124.025.235.063.347.113l-.161.587a1.2 1.2 0 0 0-.508-.112c-.42 0-.63.287-.63.875v.725h.952v.625h-.953V33.4h-.754Zm4.8.113a1.452 1.452 0 0 1-.607-.113.891.891 0 0 1-.396-.312 1.12 1.12 0 0 1-.222-.475 2.58 2.58 0 0 1-.062-.613v-2.512h-.668v-.575l.705-.05.099-1.275h.643v1.275h1.213v.625h-1.213v2.525c-.012.225.037.45.149.65.099.15.284.225.544.225a.932.932 0 0 0 .26-.038c.086-.025.173-.05.247-.087l.149.575a2.73 2.73 0 0 1-.396.112c-.161.038-.31.063-.445.063Zm2.98-.113-1.249-4.538h.78l.668 2.625c.05.213.099.425.136.638.037.2.087.412.124.625h.037c.05-.213.099-.425.148-.625.05-.2.1-.413.161-.625l.693-2.625h.742l.705 2.625c.062.212.112.425.161.637.05.213.099.413.148.625h.038c.05-.212.099-.425.136-.625.037-.2.086-.412.136-.637l.655-2.625h.718l-1.2 4.537h-.928l-.643-2.437a6.73 6.73 0 0 1-.149-.638 56.19 56.19 0 0 1-.148-.662h-.037c-.05.237-.1.45-.149.662-.05.213-.099.425-.16.65l-.631 2.425-.891-.012Zm7.423.113a1.363 1.363 0 0 1-.94-.338c-.247-.225-.37-.537-.37-.95a1.243 1.243 0 0 1 .655-1.137c.433-.263 1.138-.45 2.103-.55a2.46 2.46 0 0 0-.037-.425 1.021 1.021 0 0 0-.149-.363.819.819 0 0 0-.284-.262.978.978 0 0 0-.458-.1c-.247 0-.495.05-.73.15-.21.087-.42.2-.606.337l-.297-.537c.248-.15.495-.288.767-.4.322-.125.656-.2 1.002-.188.544 0 .94.175 1.188.513.247.337.37.787.37 1.362v2.788h-.63l-.062-.538h-.025a3.73 3.73 0 0 1-.692.463c-.26.112-.532.175-.805.175Zm.21-.613c.211 0 .421-.05.607-.15.223-.125.42-.275.606-.45v-1.262c-.322.037-.63.1-.952.175-.21.05-.421.137-.619.25a.961.961 0 0 0-.346.325.78.78 0 0 0-.112.4c0 .262.075.45.235.562.186.1.396.15.582.15Zm3.96.5v-4.537h.631l.062.825h.025c.136-.263.321-.5.556-.688.21-.163.458-.25.718-.25.16 0 .334.025.482.087l-.148.675a1.037 1.037 0 0 0-.21-.05.724.724 0 0 0-.235-.012.933.933 0 0 0-.594.238c-.21.15-.384.425-.545.812v2.913l-.742-.013Zm5.493.113a2.15 2.15 0 0 1-.842-.163 2.164 2.164 0 0 1-.68-.475 2.167 2.167 0 0 1-.458-.737 2.778 2.778 0 0 1-.16-1 2.8 2.8 0 0 1 .172-1c.1-.276.26-.538.458-.75.186-.2.396-.363.644-.476.235-.112.494-.162.742-.162.26 0 .519.05.767.15.222.1.408.238.569.425.161.2.272.425.346.675.087.288.124.575.124.875v.238c0 .062-.012.137-.025.2h-3.055c.012.425.16.837.445 1.15.272.287.656.437 1.051.425.198 0 .409-.026.594-.1a2.52 2.52 0 0 0 .52-.25l.272.5c-.21.137-.433.25-.656.337-.259.1-.544.138-.828.138Zm-1.41-2.75h2.399c0-.463-.099-.813-.297-1.05a1.023 1.023 0 0 0-.816-.363.98.98 0 0 0-.458.1 1.27 1.27 0 0 0-.396.275 1.422 1.422 0 0 0-.297.45 2.908 2.908 0 0 0-.136.587Z" fill="#1B1D2C"/><path d="M36.619 18.5c.012 10.225-8.19 18.525-18.31 18.525-10.119 0-18.333-8.275-18.333-18.5S8.166.013 18.285 0h18.26a12.54 12.54 0 0 1-3.55 7.438 12.49 12.49 0 0 1-4.999 3.087c-1.224.4-2.499.6-3.785.6h-6.136c-3.724.137-6.755 3.1-7.002 6.85 0 .075-.013.15-.013.237v.451c0 .05 0 .125.012.187 0 .125.013.25.025.362l.037.326.025.174a7.18 7.18 0 0 0 .866 2.438c.52.9 1.212 1.688 2.054 2.3a7.212 7.212 0 0 0 2.734 1.225c.05.012.099.025.148.025.05.012.1.025.149.025.012 0 .024 0 .037.012.062.013.123.026.173.026h.012a1.5 1.5 0 0 0 .235.024l.174.013c.061 0 .123.012.185.012s.124.013.186.013h3.29c.21.5.334 1.038.36 1.588 0 .087 0 .187-.026.262-.05.15-.061.3-.061.45 0 .1.012.2.024.3.161.825.965 1.35 1.782 1.188a1.518 1.518 0 0 0 1.175-1.188c.025-.1.025-.2.025-.3 0-.15-.025-.3-.062-.45a.588.588 0 0 1-.037-.213c.012-.612.16-1.212.408-1.762.272-.587.52-.988 1.002-1.4l-.074-1.113v-.024a4.51 4.51 0 0 0 2.375-2.226c0-.024.012-.037.012-.062a.47.47 0 0 0-.024-.387.472.472 0 0 0-.396-.226h-1.386c-.433 0-.581.226-.655.513a2.09 2.09 0 0 1-.149.388c-.012.012-.012.024-.012.037a.436.436 0 0 1-.384.225h-.05c-.024 0-.036 0-.061-.012-.012 0-.037-.013-.05-.013a.093.093 0 0 1-.049-.025l-.05-.025-.037-.025c-.012-.012-.024-.012-.024-.025a.39.39 0 0 1-.112-.225c0-.025-.173-1.637.075-2.125a.532.532 0 0 0 .173-.287.61.61 0 0 0 0-.213.5.5 0 0 0-.557-.438.504.504 0 0 0-.433.563c0 .05.012.1.025.15 0 0-.074 1.7-.99 1.7-.903 0-.99-1.688-.99-1.688a.499.499 0 0 0-.47-.65.499.499 0 0 0-.482.6.497.497 0 0 0 .173.3c.198.376.074 2.076.074 2.076a.442.442 0 0 1-.482.387.428.428 0 0 1-.285-.15l-.024-.038a1.44 1.44 0 0 1-.173-.45c-.063-.262-.186-.462-.508-.5-.05-.012-.099-.012-.148-.012h-1.262a.44.44 0 0 0-.396.613c0 .012.012.024.012.037.21.438.483.825.804 1.175.025.025.038.05.062.063h-.754c-2.042 0-3.687-1.675-3.687-3.726 0-.112 0-.224.012-.337.174-1.938 1.831-3.387 3.749-3.387h17.839a17.35 17.35 0 0 1 .396 3.762Z" fill="url(#b)"/><path d="M18.285 5.875c-6.903 0-12.482 5.65-12.482 12.625 0 6.962 5.592 12.613 12.495 12.6 6.903-.013 12.482-5.65 12.47-12.625a12.67 12.67 0 0 0-.582-3.788H18.384c-1.917 0-3.575 1.45-3.748 3.388-.186 2.05 1.299 3.863 3.328 4.063.11.012.222.012.346.012h.755l-.062-.063a4.21 4.21 0 0 1-.804-1.174c-.013-.013-.013-.026-.013-.038a.44.44 0 0 1 .396-.613h1.262c.05 0 .099 0 .148.013.322.05.446.25.508.5.037.138.086.263.136.388.012.024.024.05.037.062l.025.037a.435.435 0 0 0 .767-.238c0 .001.123-1.699-.075-2.074a.523.523 0 0 1-.173-.3c-.012-.025-.012-.063-.012-.1 0-.275.223-.5.495-.5s.495.225.495.5c0 .05-.013.1-.025.15 0 0 .086 1.688.99 1.688.915 0 .99-1.7.99-1.7-.013-.05-.026-.1-.026-.15a.504.504 0 0 1 .433-.563.5.5 0 0 1 .557.438.615.615 0 0 1 0 .212.468.468 0 0 1-.173.288c-.247.474-.074 2.087-.074 2.125a.636.636 0 0 0 .111.224l.025.026.037.024.05.025c.012.013.036.013.049.026.012.012.037.012.05.012.024 0 .036.012.061.012h.05a.45.45 0 0 0 .383-.224c0-.013.012-.026.012-.038.062-.125.112-.25.149-.387.074-.3.223-.513.656-.513h1.398c.16 0 .309.075.396.225a.455.455 0 0 1 .012.4c-.012.025-.025.037-.037.063a4.559 4.559 0 0 1-2.375 2.224v.026l.074 1.112c-.483.425-.73.813-1.002 1.4-.26.55-.396 1.15-.409 1.762a.64.64 0 0 0 .038.213c.049.15.061.3.061.45 0 .1-.012.2-.024.3a1.511 1.511 0 0 1-1.782 1.188 1.518 1.518 0 0 1-1.175-1.188c-.025-.1-.025-.2-.025-.3 0-.15.025-.3.062-.45a.634.634 0 0 0 .025-.262 4.636 4.636 0 0 0-.359-1.588h-3.29c-.063 0-.124 0-.186-.012-.062-.013-.124 0-.186-.013l-.173-.012c-.074-.013-.16-.013-.235-.026h.012c-.062-.012-.123-.012-.173-.024-.012 0-.025 0-.037-.013-.05-.012-.099-.012-.148-.025-.05-.012-.1-.012-.149-.025a6.947 6.947 0 0 1-2.734-1.225 7.29 7.29 0 0 1-2.054-2.3 7.086 7.086 0 0 1-.866-2.438l-.024-.175-.037-.325a3.56 3.56 0 0 1-.025-.362c0-.063 0-.125-.013-.188-.012-.062 0-.112 0-.162v-.288c0-.1 0-.15.013-.237.247-3.762 3.278-6.737 7.014-6.862h6.136c1.275 0 2.549-.2 3.761-.588-2.388-2.912-5.938-4.625-9.699-4.625Z" fill="url(#c)"/><path d="M24.174 11.125c.21 0 .42 0 .63-.012h.025C30.891 10.788 35.827 6.088 36.507 0H18.31c-2.14 0-4.268.375-6.273 1.113l-.024.012c1.187 5.825 6.272 10 12.16 10Z" fill="url(#d)"/><path d="M18.335 14.7c-1.893.025-3.526 1.475-3.7 3.388-.185 2.05 1.312 3.862 3.34 4.05.112.012.224.012.335.012.272 0 .52 0 .755-.012l-.062-.063a4.208 4.208 0 0 1-.804-1.175c-.013-.012-.013-.025-.013-.037a.44.44 0 0 1 .396-.613h1.262c.05 0 .099 0 .148.013.322.05.446.25.508.5.037.137.086.262.136.387a.27.27 0 0 0 .037.063l.025.037a.435.435 0 0 0 .767-.238s.123-1.7-.075-2.074a.524.524 0 0 1-.173-.3c-.012-.025-.012-.063-.012-.1a.499.499 0 0 1 .742-.438 3.683 3.683 0 0 0-3.612-3.4Z" fill="url(#e)"/><path d="M27.514 0H18.31v5.987h9.204c3.909 0 7.447-2.35 8.994-5.987h-8.994Z" fill="url(#f)"/></g><defs><linearGradient id="b" x1="-2.18" x2="41.629" y1="31.052" y2="4.776" gradientUnits="userSpaceOnUse"><stop stop-color="#FF4E50"/><stop offset=".05" stop-color="#FE594C"/><stop offset=".27" stop-color="#FD853E"/><stop offset=".47" stop-color="#FBA732"/><stop offset=".67" stop-color="#FAC02A"/><stop offset=".85" stop-color="#F9CF25"/><stop offset="1" stop-color="#F9D423"/></linearGradient><linearGradient id="c" x1="5.847" x2="19.739" y1="20.529" y2="18.296" gradientUnits="userSpaceOnUse"><stop offset=".16" stop-color="#FF4E50"/><stop offset="1" stop-color="#FD843D" stop-opacity="0"/></linearGradient><linearGradient id="d" x1="32.236" x2="17.575" y1="-1.448" y2="7.313" gradientUnits="userSpaceOnUse"><stop offset=".08" stop-color="#FF4E50"/><stop offset=".37" stop-color="#FD843D"/><stop offset=".89" stop-color="#FD843D" stop-opacity="0"/></linearGradient><linearGradient id="e" x1="7.349" x2="19.865" y1="18.427" y2="18.427" gradientUnits="userSpaceOnUse"><stop offset=".53" stop-color="#FF4E50"/><stop offset=".94" stop-color="#FD843D" stop-opacity="0"/></linearGradient><linearGradient id="f" x1="43.422" x2="25.014" y1="2.809" y2="2.969" gradientUnits="userSpaceOnUse"><stop offset=".08" stop-color="#FF4E50"/><stop offset=".51" stop-color="#FD843D"/><stop offset=".96" stop-color="#FD843D" stop-opacity="0"/></linearGradient><clipPath id="a"><path d="M0 0h120v37H0z" fill="#fff"/></clipPath></defs></svg>